<?xml version="1.0" standalone="no"?>
<!DOCTYPE svg PUBLIC "-//W3C//DTD SVG 20010904//EN"
 "http://www.w3.org/TR/2001/REC-SVG-20010904/DTD/svg10.dtd">
<svg version="1.0" xmlns="http://www.w3.org/2000/svg"
 width="500.000000pt" height="500.000000pt" viewBox="0 0 500.000000 500.000000"
 preserveAspectRatio="xMidYMid meet">

<g transform="translate(0.000000,500.000000) scale(0.100000,-0.100000)"
fill="#000000" stroke="none">
<path d="M0 2500 l0 -2500 2500 0 2500 0 0 2500 0 2500 -2500 0 -2500 0 0
-2500z m3480 0 l0 -980 -980 0 -980 0 0 980 0 980 980 0 980 0 0 -980z"/>
<path d="M1580 2500 l0 -920 920 0 920 0 0 920 0 920 -920 0 -920 0 0 -920z
m1180 604 c112 -33 203 -169 186 -278 -16 -99 -97 -194 -189 -221 -63 -19 -81
-19 -144 0 -103 31 -193 147 -193 250 0 99 83 212 182 246 66 23 90 23 158 3z
m-570 -199 l0 -205 90 0 90 0 0 -50 0 -50 -150 0 -150 0 0 255 0 255 60 0 60
0 0 -205z m365 -852 l-143 -358 -52 -3 c-47 -3 -52 -1 -46 15 3 10 68 172 144
360 l137 343 52 0 51 0 -143 -357z m-295 115 l0 -43 -113 -51 c-61 -28 -112
-54 -112 -58 0 -4 51 -30 113 -58 l112 -51 0 -44 c0 -23 -2 -43 -4 -43 -2 0
-70 31 -152 70 l-149 70 0 56 0 57 145 68 c80 37 148 68 153 68 4 1 7 -18 7
-41z m640 -27 l145 -67 0 -58 0 -57 -149 -70 c-81 -38 -150 -69 -152 -69 -2 0
-4 19 -4 43 l0 43 108 50 c60 27 110 54 111 59 2 6 -47 33 -108 60 l-111 50 0
43 c0 23 3 42 8 42 4 -1 72 -31 152 -69z"/>
<path d="M2643 2999 c-17 -5 -45 -23 -62 -40 -60 -60 -59 -146 3 -207 29 -30
43 -36 88 -39 97 -7 162 58 155 155 -3 43 -10 59 -37 87 -19 20 -50 40 -70 45
-40 11 -34 11 -77 -1z"/>
</g>
</svg>
